<svg preserveAspectRatio="none" width="100%" height="100%" overflow="visible" style="display: block;" viewBox="0 0 32 32" fill="none" xmlns="http://www.w3.org/2000/svg">
<g id="ic-arrows-swap-right">
<path id="Icon" fill-rule="evenodd" clip-rule="evenodd" d="M25.7071 2.29289C25.3166 1.90237 24.6834 1.90237 24.2929 2.29289C23.9024 2.68342 23.9024 3.31658 24.2929 3.70711L26.5858 6H23.2433C21.5015 6 19.8852 6.90648 18.9769 8.39275L15.5 14.0823L12.0231 8.39275C11.1148 6.90647 9.49849 6 7.75666 6H3C2.44772 6 2 6.44771 2 7C2 7.55228 2.44772 8 3 8H7.75666C8.80176 8 9.77154 8.54388 10.3165 9.43565L14.6365 16.5047C14.6433 16.5164 14.6505 16.5281 14.6578 16.5396L18.9769 23.6072C19.8852 25.0935 21.5015 26 23.2433 26H26.5858L24.2929 28.2929C23.9024 28.6834 23.9024 29.3166 24.2929 29.7071C24.6834 30.0976 25.3166 30.0976 25.7071 29.7071L29.7071 25.7071C30.0976 25.3166 30.0976 24.6834 29.7071 24.2929L25.7071 20.2929C25.3166 19.9024 24.6834 19.9024 24.2929 20.2929C23.9024 20.6834 23.9024 21.3166 24.2929 21.7071L26.5858 24H23.2433C22.1982 24 21.2285 23.4561 20.6835 22.5643L16.6719 16L20.6835 9.43565C21.2285 8.54388 22.1982 8 23.2433 8H26.5858L24.2929 10.2929C23.9024 10.6834 23.9024 11.3166 24.2929 11.7071C24.6834 12.0976 25.3166 12.0976 25.7071 11.7071L29.7071 7.70711C30.0976 7.31658 30.0976 6.68342 29.7071 6.29289L25.7071 2.29289ZM12.2405 19.416C12.5285 18.9448 13.1439 18.7962 13.6152 19.0842C14.0865 19.3722 14.235 19.9877 13.947 20.4589L13.6033 21.0214L12.0231 23.6072C11.1148 25.0935 9.49849 26 7.75666 26H3C2.44772 26 2 25.5523 2 25C2 24.4477 2.44772 24 3 24H7.75666C8.80176 24 9.77154 23.4561 10.3165 22.5643L11.8967 19.9785L12.2405 19.416Z" fill="currentColor"/>
</g>
</svg>
