<svg preserveAspectRatio="none" width="100%" height="100%" overflow="visible" style="display: block;" viewBox="0 0 32 32" fill="none" xmlns="http://www.w3.org/2000/svg">
<g id="ic-bolt-filled">
<path id="Icon" fill-rule="evenodd" clip-rule="evenodd" d="M11.5292 29.8823C11.1174 29.6625 10.9124 29.1872 11.0352 28.7369L13.6907 19L7 19C6.60848 19 6.25297 18.7715 6.09035 18.4154C5.92772 18.0592 5.98789 17.6409 6.24431 17.3451L19.2443 2.34507C19.55 1.99236 20.059 1.89802 20.4708 2.11775C20.8826 2.33747 21.0876 2.81283 20.9648 3.26312L18.3092 13L25 13C25.3915 13 25.747 13.2285 25.9097 13.5846C26.0723 13.9408 26.0121 14.3591 25.7557 14.6549L12.7557 29.6549C12.45 30.0076 11.941 30.102 11.5292 29.8823Z" fill="currentColor"/>
</g>
</svg>
