<svg preserveAspectRatio="none" width="100%" height="100%" overflow="visible" style="display: block;" viewBox="0 0 32 32" fill="none" xmlns="http://www.w3.org/2000/svg">
<g id="ic-map-pin">
<g id="Icon">
<path fill-rule="evenodd" clip-rule="evenodd" d="M16 9C18.2091 9 20 10.7909 20 13C20 15.2091 18.2091 17 16 17C13.7909 17 12 15.2091 12 13C12 10.7909 13.7909 9 16 9ZM16 11C14.8954 11 14 11.8954 14 13C14 14.1046 14.8954 15 16 15C17.1046 15 18 14.1046 18 13C18 11.8954 17.1046 11 16 11Z" fill="currentColor"/>
<path fill-rule="evenodd" clip-rule="evenodd" d="M16 2C22.0751 2 27 6.92487 27 13C27 20.1626 20.0322 27.0712 17.1875 29.5938C16.5428 30.1654 15.6224 30.2018 14.9434 29.7012L14.8125 29.5938C11.9678 27.0712 5 20.1626 5 13C5 6.92487 9.92487 2 16 2ZM16 4C11.0294 4 7 8.02944 7 13C7 15.9676 8.46417 19.0697 10.4668 21.875C12.3768 24.5505 14.6202 26.737 16 27.9727C17.3798 26.737 19.6232 24.5505 21.5332 21.875C23.5358 19.0697 25 15.9676 25 13C25 8.02944 20.9706 4 16 4Z" fill="currentColor"/>
</g>
</g>
</svg>
