<svg width="32" height="32" viewBox="0 0 32 32" fill="none" xmlns="http://www.w3.org/2000/svg">
<path d="M14.9956 24H4.92266C4.36634 24 3.9048 23.5467 4.01691 23.0058C4.61448 20.1222 7.68468 18.414 8.79898 17.8812C9.04942 17.7614 9.2335 17.535 9.28261 17.2633L11.2475 6.39541C11.2925 6.14661 11.2164 5.89134 11.0422 5.70692L8.81377 3.34716C8.33127 2.83622 8.69619 2 9.40165 2H22.6041C23.3096 2 23.6745 2.83622 23.192 3.34715L20.9636 5.70692C20.7894 5.89134 20.7133 6.14661 20.7583 6.39541L22.7232 17.2633C22.7723 17.535 22.9564 17.7614 23.2068 17.8812C24.3211 18.414 27.3855 20.1165 27.9831 23C28.0952 23.541 27.6337 23.9942 27.0773 23.9942L17.0102 24V31C17.0102 31.5523 16.5592 32 16.0029 32C15.4466 32 14.9956 31.5523 14.9956 31V24Z" fill="currentColor"/>
</svg>
