<svg width="32" height="32" viewBox="0 0 32 32" fill="none" xmlns="http://www.w3.org/2000/svg">
<path fill-rule="evenodd" clip-rule="evenodd" d="M17 3C17 2.44772 16.5523 2 16 2C15.4477 2 15 2.44772 15 3V17C15 17.5523 15.4477 18 16 18C16.5523 18 17 17.5523 17 17V3ZM10.3268 7.8596C10.8015 7.57726 10.9574 6.96359 10.675 6.48893C10.3927 6.01427 9.779 5.85837 9.30434 6.14071C5.5327 8.3842 3 12.4737 3 17.154C3 24.2609 8.8325 30.0002 16 30.0002C23.1675 30.0002 29 24.2609 29 17.154C29 12.4737 26.4673 8.3842 22.6957 6.14071C22.221 5.85837 21.6073 6.01427 21.325 6.48893C21.0426 6.96359 21.1985 7.57726 21.6732 7.8596C24.8713 9.76191 27 13.216 27 17.154C27 23.132 22.0873 28.0002 16 28.0002C9.91266 28.0002 5 23.132 5 17.154C5 13.216 7.12873 9.76191 10.3268 7.8596Z" fill="#191927"/>
</svg>
