<svg width="32" height="32" viewBox="0 0 32 32" fill="none" xmlns="http://www.w3.org/2000/svg">
<path d="M21.0071 7.98892L20.7203 6.3915C20.6757 6.1427 20.7512 5.88743 20.9241 5.70302L23.1364 3.34324C23.6154 2.83231 23.2531 1.99609 22.5528 1.99609L9.44594 1.99609C8.74559 1.99609 8.38331 2.83232 8.86231 3.34325L11.0746 5.70302C11.2475 5.88743 11.3231 6.1427 11.2784 6.3915L9.32776 17.2594C9.27901 17.531 9.09627 17.7575 8.84763 17.8773C7.7414 18.4101 4.69344 20.1183 4.1002 23.0018C3.9889 23.5428 4.4471 23.9961 4.99938 23.9961L21.0071 7.98892Z" fill="currentColor"/>
<path d="M3.64802 28.176C3.2744 28.5677 3.28001 29.1881 3.66484 29.573C4.05537 29.9635 4.68853 29.9635 5.07905 29.573L10.6559 23.9961L14.9994 23.9961V30.9961C14.9994 31.5484 15.4471 31.9961 15.9994 31.9961C16.5516 31.9961 16.9994 31.5484 16.9994 30.9961L16.9994 23.9961L26.9994 23.9961C27.5517 23.9961 28.0099 23.5428 27.8986 23.0018C27.3053 20.1183 24.2574 18.4101 23.1511 17.8773C22.9025 17.7575 22.7198 17.531 22.671 17.2594L21.8678 12.7842L29.1207 5.53133C29.5112 5.1408 29.5112 4.50764 29.1207 4.11711C28.7359 3.73237 28.1157 3.72667 27.724 4.10004C27.7184 4.10583 27.7128 4.11157 27.7071 4.11726L3.66551 28.1589C3.65973 28.1647 3.6539 28.1704 3.64802 28.176Z" fill="currentColor"/>
</svg>
