<svg preserveAspectRatio="none" width="100%" height="100%" overflow="visible" style="display: block;" viewBox="0 0 32 32" fill="none" xmlns="http://www.w3.org/2000/svg">
<g id="ic-placeholder">
<path id="Icon" fill-rule="evenodd" clip-rule="evenodd" d="M11.4142 4L4 11.4142L2.58579 10L10 2.58579L11.4142 4ZM17.4142 4L4 17.4142L2.58579 16L16 2.58579L17.4142 4ZM23.4142 4L4 23.4142L2.58579 22L22 2.58579L23.4142 4ZM29.4142 4L4 29.4142L2.58579 28L28 2.58579L29.4142 4ZM29.4142 10L10 29.4142L8.58579 28L28 8.58579L29.4142 10ZM29.4142 16L16 29.4142L14.5858 28L28 14.5858L29.4142 16ZM29.4142 22L22 29.4142L20.5858 28L28 20.5858L29.4142 22Z" fill="var(--fill-0, #191927)"/>
</g>
</svg>
