<svg width="32" height="32" viewBox="0 0 32 32" fill="none" xmlns="http://www.w3.org/2000/svg">
<path fill-rule="evenodd" clip-rule="evenodd" d="M12.1056 2.55279C12.275 2.214 12.6212 2 13 2H19C19.3788 2 19.725 2.214 19.8944 2.55279L21.618 6H28C28.5523 6 29 6.44772 29 7C29 7.55228 28.5523 8 28 8H25.913L24.1588 28.1733C24.069 29.2068 23.2038 30 22.1664 30H9.83363C8.79622 30 7.93102 29.2068 7.84115 28.1733L6.08696 8H4C3.44772 8 3 7.55228 3 7C3 6.44772 3.44772 6 4 6H10.382L12.1056 2.55279ZM18.382 4L19.382 6H12.618L13.618 4H18.382ZM11.2929 13.2929C11.6834 12.9024 12.3166 12.9024 12.7071 13.2929L16 16.5858L19.2929 13.2929C19.6834 12.9024 20.3166 12.9024 20.7071 13.2929C21.0976 13.6834 21.0976 14.3166 20.7071 14.7071L17.4142 18L20.7071 21.2929C21.0976 21.6834 21.0976 22.3166 20.7071 22.7071C20.3166 23.0976 19.6834 23.0976 19.2929 22.7071L16 19.4142L12.7071 22.7071C12.3166 23.0976 11.6834 23.0976 11.2929 22.7071C10.9024 22.3166 10.9024 21.6834 11.2929 21.2929L14.5858 18L11.2929 14.7071C10.9024 14.3166 10.9024 13.6834 11.2929 13.2929Z" fill="currentColor"/>
</svg>
