<svg width="48" height="48" viewBox="0 0 48 48" fill="none" xmlns="http://www.w3.org/2000/svg">
<path fill-rule="evenodd" clip-rule="evenodd" d="M24 3C35.598 3 45 12.402 45 24C45 35.598 35.598 45 24 45C12.402 45 3 35.598 3 24C3 12.402 12.402 3 24 3ZM32.9326 14.8857C32.093 14.3537 30.9804 14.6029 30.4482 15.4424L21.5771 29.4375L17.2939 24.0938C16.6723 23.3183 15.5413 23.1939 14.7656 23.8154C13.9901 24.4371 13.8658 25.5681 14.4873 26.3438L19.9512 33.1641C20.9166 34.3689 22.781 34.2661 23.6074 32.9619L33.4893 17.3701C34.0213 16.5305 33.7721 15.4179 32.9326 14.8857Z" fill="#1C9C7C"/>
</svg>
