<svg width="48" height="48" viewBox="0 0 48 48" fill="none" xmlns="http://www.w3.org/2000/svg">
<path fill-rule="evenodd" clip-rule="evenodd" d="M12.4393 12.4393C13.0251 11.8536 13.9749 11.8536 14.5607 12.4393L24 21.8787L33.4393 12.4393C34.0251 11.8536 34.9749 11.8536 35.5607 12.4393C36.1464 13.0251 36.1464 13.9749 35.5607 14.5607L26.1213 24L35.5607 33.4393C36.1464 34.0251 36.1464 34.9749 35.5607 35.5607C34.9749 36.1464 34.0251 36.1464 33.4393 35.5607L24 26.1213L14.5607 35.5607C13.9749 36.1464 13.0251 36.1464 12.4393 35.5607C11.8536 34.9749 11.8536 34.0251 12.4393 33.4393L21.8787 24L12.4393 14.5607C11.8536 13.9749 11.8536 13.0251 12.4393 12.4393Z" fill="#A7A4B5"/>
</svg>
