<svg width="48" height="48" viewBox="0 0 48 48" fill="none" xmlns="http://www.w3.org/2000/svg">
<path d="M28.5131 15V9C28.5131 7.34315 27.1699 6 25.5131 6H9.00073C7.34388 6 6.00073 7.34315 6.00073 9L6.00073 39C6.00073 40.6569 7.34388 42 9.00073 42H25.5131C27.1699 42 28.5131 40.6569 28.5131 39V33H31.5131V39C31.5131 42.3137 28.8268 45 25.5131 45H9.00073C5.68702 45 3.00073 42.3137 3.00073 39L3.00073 9C3.00073 5.68629 5.68703 3 9.00073 3H25.5131C28.8268 3 31.5131 5.68629 31.5131 9V15H28.5131Z" fill="#191927"/>
<path d="M34.9387 15.4562C35.5152 14.8613 36.4648 14.8463 37.0598 15.4227L44.3556 22.4918C45.2072 23.317 45.2072 24.6831 44.3556 25.5082L37.0598 32.5773C36.4648 33.1537 35.5152 33.1387 34.9387 32.5438C34.3622 31.9488 34.3772 30.9992 34.9722 30.4227L40.0528 25.5L19.5219 25.5C18.6935 25.5 18.0219 24.8284 18.0219 24C18.0219 23.1716 18.6935 22.5 19.5219 22.5L40.0528 22.5L34.9722 17.5773C34.3772 17.0008 34.3622 16.0512 34.9387 15.4562Z" fill="#191927"/>
</svg>
