<svg width="32" height="32" viewBox="0 0 32 32" fill="none" xmlns="http://www.w3.org/2000/svg">
  <path fill-rule="evenodd" clip-rule="evenodd" d="M11.0369 4C9.43722 4 7.93411 4.76542 6.99322 6.05914L0.191264 15.4118C-0.0637546 15.7625 -0.0637546 16.2375 0.191264 16.5882L6.99322 25.9409C7.93411 27.2346 9.43721 28 11.0369 28H31C31.5523 28 32 27.5523 32 27V5C32 4.44772 31.5523 4 31 4H11.0369ZM8.61069 7.23549C9.17522 6.45925 10.0771 6 11.0369 6H30V26H11.0369C10.0771 26 9.17522 25.5407 8.61069 24.7645L2.2365 16L8.61069 7.23549ZM15.7071 11.2929C15.3166 10.9024 14.6834 10.9024 14.2929 11.2929C13.9024 11.6834 13.9024 12.3166 14.2929 12.7071L17.5858 16L14.2929 19.2929C13.9024 19.6834 13.9024 20.3166 14.2929 20.7071C14.6834 21.0976 15.3166 21.0976 15.7071 20.7071L19 17.4142L22.2929 20.7071C22.6834 21.0976 23.3166 21.0976 23.7071 20.7071C24.0976 20.3166 24.0976 19.6834 23.7071 19.2929L20.4142 16L23.7071 12.7071C24.0976 12.3166 24.0976 11.6834 23.7071 11.2929C23.3166 10.9024 22.6834 10.9024 22.2929 11.2929L19 14.5858L15.7071 11.2929Z" fill="currentColor"/>
</svg>
