<svg width="36" height="36" viewBox="0 0 36 36" fill="none" xmlns="http://www.w3.org/2000/svg">
  <path fill-rule="evenodd" clip-rule="evenodd" d="M2.87792 21.0977L5.39303 21.8954C5.83745 22.0364 6.18492 22.3803 6.36461 22.8105C6.54552 23.2436 6.54367 23.7356 6.32708 24.1521L5.10538 26.501C4.92424 26.8492 4.98973 27.2747 5.26723 27.5524L8.44322 30.7306C8.721 31.0085 9.14702 31.0741 9.49556 30.8926L11.8423 29.6704C12.2584 29.4537 12.7501 29.4518 13.1829 29.6328C13.6122 29.8123 13.9553 30.1593 14.0958 30.6029L14.8936 33.1217C15.0121 33.4958 15.3592 33.75 15.7516 33.75H20.2286C20.621 33.75 20.9682 33.4958 21.0866 33.1217L21.8844 30.6029C22.0249 30.1593 22.368 29.8123 22.7974 29.6328C23.2301 29.4518 23.7219 29.4537 24.1379 29.6704L26.4847 30.8926C26.8332 31.0741 27.2592 31.0085 27.537 30.7306L30.713 27.5524C30.9905 27.2747 31.056 26.8492 30.8749 26.501L29.6508 24.1474C29.4357 23.7339 29.4338 23.2453 29.6136 22.8153C29.7935 22.3852 30.1423 22.0424 30.5876 21.9043L33.1165 21.1204C33.4932 21.0036 33.75 20.6552 33.75 20.2607V15.7799C33.75 15.3877 33.496 15.0406 33.1221 14.922L30.607 14.1243C30.1625 13.9834 29.8151 13.6395 29.6354 13.2093C29.4545 12.7762 29.4563 12.2841 29.6729 11.8677L30.8946 9.5188C31.0758 9.17052 31.0103 8.74501 30.7328 8.46733L27.5568 5.2892C27.279 5.01122 26.853 4.94562 26.5044 5.12715L24.1565 6.34998C23.7412 6.56629 23.2503 6.56816 22.8183 6.38746C22.389 6.20789 22.0461 5.8606 21.9063 5.41674L21.1071 2.87959C20.989 2.50486 20.6416 2.25 20.2487 2.25H15.7714C15.379 2.25 15.0318 2.5042 14.9134 2.87825L14.1156 5.39707C13.9751 5.84072 13.632 6.18767 13.2026 6.36721C12.7699 6.54818 12.2781 6.54631 11.8621 6.32964L9.51582 5.10765C9.16827 4.92664 8.74354 4.99131 8.46561 5.26757L5.26909 8.44493C4.98988 8.72246 4.92346 9.14926 5.10511 9.49853L6.32708 11.8479C6.54367 12.2644 6.54552 12.7564 6.36461 13.1895C6.18492 13.6197 5.83745 13.9636 5.39303 14.1046L2.87792 14.9023C2.50403 15.0208 2.25 15.3679 2.25 15.7601V20.2399C2.25 20.6321 2.50403 20.9792 2.87792 21.0977ZM31.5 16.768L29.9268 16.2691C28.7873 15.9077 27.9665 15.0516 27.5592 14.0765C27.1479 13.0918 27.1217 11.8967 27.6768 10.8295L28.442 9.35812L26.6653 7.58021L25.1959 8.34555C24.1292 8.90107 22.9343 8.87489 21.95 8.46319C20.9748 8.05528 20.1195 7.23315 19.7603 6.09276L19.2585 4.5H16.7599L16.2606 6.07644C15.8999 7.21516 15.0449 8.03564 14.0707 8.44303C13.0858 8.85486 11.8901 8.88111 10.8228 8.3252L9.35184 7.55912L7.55928 9.34092L8.32322 10.8097C8.8783 11.8769 8.85207 13.072 8.44079 14.0567C8.03348 15.0319 7.21271 15.8879 6.07323 16.2493L4.5 16.7483V19.2517L6.07324 19.7507C7.21271 20.1121 8.03348 20.9681 8.44079 21.9433C8.85207 22.928 8.8783 24.1231 8.32322 25.1903L7.55795 26.6616L9.33465 28.4395L10.803 27.6748C11.8704 27.1189 13.0661 27.1451 14.0509 27.557C15.0251 27.9644 15.8802 28.7848 16.2408 29.9236L16.7401 31.5H19.2401L19.7394 29.9236C20.1001 28.7848 20.9551 27.9644 21.9293 27.557C22.9142 27.1452 24.1099 27.1189 25.1772 27.6748L26.6456 28.4395L28.4223 26.6616L27.6546 25.1857C27.1011 24.1215 27.1271 22.9295 27.5378 21.9473C27.9473 20.968 28.7749 20.1106 29.9214 19.7552L31.5 19.2659V16.768Z" fill="currentColor"/>
  <path fill-rule="evenodd" clip-rule="evenodd" d="M18 13.5C15.5147 13.5 13.5 15.5147 13.5 18C13.5 20.4853 15.5147 22.5 18 22.5C20.4853 22.5 22.5 20.4853 22.5 18C22.5 15.5147 20.4853 13.5 18 13.5ZM11.25 18C11.25 14.2721 14.2721 11.25 18 11.25C21.7279 11.25 24.75 14.2721 24.75 18C24.75 21.7279 21.7279 24.75 18 24.75C14.2721 24.75 11.25 21.7279 11.25 18Z" fill="currentColor"/>
</svg>
