<svg width="48" height="48" viewBox="0 0 48 48" fill="none" xmlns="http://www.w3.org/2000/svg">
<path fill-rule="evenodd" clip-rule="evenodd" d="M28.4873 12.3638C28.6897 11.5601 28.1976 10.7457 27.3881 10.5448C26.5786 10.3438 25.7584 10.8325 25.556 11.6362L19.5126 35.6359C19.3102 36.4396 19.8024 37.254 20.6118 37.4549C21.4213 37.6559 22.2416 37.1672 22.4439 36.3635L28.4873 12.3638ZM14.6331 12.9007C15.1337 12.238 14.9984 11.2978 14.3309 10.8007C13.6634 10.3037 12.7165 10.438 12.2158 11.1007L3.42302 22.7407C2.85899 23.4874 2.859 24.5141 3.42302 25.2607L12.2158 36.9007C12.7165 37.5635 13.6634 37.6978 14.3309 37.2007C14.9984 36.7037 15.1337 35.7635 14.6331 35.1007L6.2482 24.0007L14.6331 12.9007ZM35.7842 11.1007C35.2835 10.438 34.3366 10.3037 33.6691 10.8007C33.0016 11.2978 32.8663 12.238 33.3669 12.9007L41.7518 24.0007L33.3669 35.1007C32.8663 35.7635 33.0016 36.7037 33.6691 37.2007C34.3366 37.6978 35.2835 37.5635 35.7842 36.9007L44.577 25.2607C45.141 24.5141 45.141 23.4874 44.577 22.7407L35.7842 11.1007Z" fill="#191927"/>
</svg>
