<svg width="48" height="48" viewBox="0 0 48 48" fill="none" xmlns="http://www.w3.org/2000/svg">
<path fill-rule="evenodd" clip-rule="evenodd" d="M39 18V39C39 40.6569 37.6569 42 36 42H12C10.3431 42 9 40.6569 9 39V9C9 7.34315 10.3431 6 12 6H27V13.5C27 15.9853 29.0147 18 31.5 18H39ZM37.7574 15L30 7.24264V13.5C30 14.3284 30.6716 15 31.5 15H37.7574ZM6 9C6 5.68629 8.68629 3 12 3H27.5147C29.106 3 30.6321 3.63214 31.7574 4.75736L40.2426 13.2426C41.3679 14.3679 42 15.894 42 17.4853V39C42 42.3137 39.3137 45 36 45H12C8.68629 45 6 42.3137 6 39V9Z" fill="#191927"/>
</svg>
