<svg width="36" height="36" viewBox="0 0 36 36" fill="none" xmlns="http://www.w3.org/2000/svg">
  <path fill-rule="evenodd" clip-rule="evenodd" d="M29.25 29.249V13.8684L18 4.49341L6.75 13.8684V29.249H13.5V21.824C13.5 20.3328 14.7088 19.124 16.2 19.124H19.8C21.2912 19.124 22.5 20.3328 22.5 21.824V29.249L29.25 29.249ZM5.30959 12.1399C4.7966 12.5674 4.5 13.2007 4.5 13.8684V29.249C4.5 30.4917 5.50736 31.499 6.75 31.499H15.75V21.824C15.75 21.5755 15.9515 21.374 16.2 21.374H19.8C20.0485 21.374 20.25 21.5755 20.25 21.824V31.499H29.25C30.4926 31.499 31.5 30.4917 31.5 29.249V13.8684C31.5 13.2007 31.2034 12.5674 30.6904 12.1399L19.4404 2.76491C18.606 2.06957 17.394 2.06957 16.5596 2.76491L5.30959 12.1399Z" fill="currentColor"/>
</svg>
