<svg width="36" height="36" viewBox="0 0 36 36" fill="none" xmlns="http://www.w3.org/2000/svg">
  <path fill-rule="evenodd" clip-rule="evenodd" d="M24.75 14.625C24.75 20.2169 20.2169 24.75 14.625 24.75C9.03312 24.75 4.5 20.2169 4.5 14.625C4.5 9.03312 9.03312 4.5 14.625 4.5C20.2169 4.5 24.75 9.03312 24.75 14.625ZM22.5439 24.1349C20.398 25.9238 17.6372 27 14.625 27C7.79048 27 2.25 21.4595 2.25 14.625C2.25 7.79048 7.79048 2.25 14.625 2.25C21.4595 2.25 27 7.79048 27 14.625C27 17.6372 25.9238 20.398 24.1349 22.5439L31.1705 29.5795C31.6098 30.0188 31.6098 30.7312 31.1705 31.1705C30.7312 31.6098 30.0188 31.6098 29.5795 31.1705L22.5439 24.1349Z" fill="currentColor"/>
</svg>
