<svg width="48" height="48" viewBox="0 0 48 48" fill="none" xmlns="http://www.w3.org/2000/svg">
<path fill-rule="evenodd" clip-rule="evenodd" d="M27.2577 32.9868H39C40.6581 32.9868 42 31.6436 42 29.9894V11.9974C42 10.3432 40.6581 9 39 9H9C7.3419 9 6 10.3432 6 11.9974V29.9894C6 31.6436 7.3419 32.9868 9 32.9868H21V39.2418L27.2577 32.9868ZM19.7925 44.6905C19.131 45.3517 18 44.8834 18 43.9484V35.9868H9C5.68629 35.9868 3 33.3017 3 29.9894V11.9974C3 8.68511 5.68629 6 9 6H39C42.3137 6 45 8.68511 45 11.9974V29.9894C45 33.3017 42.3137 35.9868 39 35.9868H28.5L19.7925 44.6905Z" fill="#191927"/>
</svg>
