<svg preserveAspectRatio="none" width="100%" height="100%" overflow="visible" style="display: block;" viewBox="0 0 56 56" fill="none" xmlns="http://www.w3.org/2000/svg">
<g id="ic-lock-filled">
<path id="Icon" fill-rule="evenodd" clip-rule="evenodd" d="M18.2 17.5H17.5C17.5 11.701 22.201 7 28 7C33.799 7 38.5 11.701 38.5 17.5H37.8H18.2ZM14 17.5672V17.5C14 9.76801 20.268 3.5 28 3.5C35.732 3.5 42 9.76801 42 17.5V17.5672C43.3727 17.651 44.3467 17.8394 45.1779 18.263C46.4951 18.9341 47.5659 20.0049 48.237 21.3221C49 22.8194 49 24.7796 49 28.7V41.3C49 45.2204 49 47.1806 48.237 48.6779C47.5659 49.9951 46.4951 51.0659 45.1779 51.737C43.6806 52.5 41.7204 52.5 37.8 52.5H18.2C14.2796 52.5 12.3194 52.5 10.8221 51.737C9.50493 51.0659 8.43407 49.9951 7.76295 48.6779C7 47.1806 7 45.2204 7 41.3V28.7C7 24.7796 7 22.8194 7.76295 21.3221C8.43407 20.0049 9.50493 18.9341 10.8221 18.263C11.6533 17.8394 12.6273 17.651 14 17.5672ZM29.6472 34.5889C30.7498 33.9997 31.5 32.8375 31.5 31.5C31.5 29.567 29.933 28 28 28C26.067 28 24.5 29.567 24.5 31.5C24.5 32.8375 25.2502 33.9997 26.3528 34.5889L24.8262 40.6953C24.6605 41.358 25.1617 42 25.8448 42H30.1552C30.8383 42 31.3395 41.358 31.1738 40.6953L29.6472 34.5889Z" fill="var(--fill-0, #39E3B9)"/>
</g>
</svg>
