<svg width="56" height="56" viewBox="0 0 56 56" fill="none" xmlns="http://www.w3.org/2000/svg">
<path fill-rule="evenodd" clip-rule="evenodd" d="M28 0C20.268 0 14 6.26801 14 14V17.5672C12.6273 17.651 11.6533 17.8394 10.8221 18.263C9.50493 18.9341 8.43407 20.0049 7.76295 21.3221C7 22.8194 7 24.7796 7 28.7V41.3C7 45.2204 7 47.1806 7.76295 48.6779C8.43407 49.9951 9.50493 51.0659 10.8221 51.737C12.3194 52.5 14.2796 52.5 18.2 52.5H37.8C41.7204 52.5 43.6806 52.5 45.1779 51.737C46.4951 51.0659 47.5659 49.9951 48.237 48.6779C49 47.1806 49 45.2204 49 41.3V28.7C49 24.7796 49 22.8194 48.237 21.3221C47.5659 20.0049 46.4951 18.9341 45.1779 18.263C43.6806 17.5 41.7204 17.5 37.8 17.5H18.2C17.9594 17.5 17.7262 17.5 17.5 17.5002V14C17.5 8.20101 22.201 3.5 28 3.5C31.8174 3.5 35.161 5.53609 37.0011 8.58991C37.4999 9.41774 38.5754 9.68446 39.4032 9.18564C40.231 8.68683 40.4977 7.61137 39.9989 6.78354C37.5519 2.72245 33.0947 0 28 0ZM29.6472 34.5889C30.7498 33.9997 31.5 32.8375 31.5 31.5C31.5 29.567 29.933 28 28 28C26.067 28 24.5 29.567 24.5 31.5C24.5 32.8375 25.2502 33.9997 26.3528 34.5889L24.8262 40.6953C24.6605 41.358 25.1617 42 25.8448 42H30.1552C30.8383 42 31.3395 41.358 31.1738 40.6953L29.6472 34.5889Z" fill="#F08FA4"/>
</svg>
